<mxfile host="app.diagrams.net" modified="2022-06-08T18:30:13.470Z" agent="5.0 (Windows NT 10.0; Win64; x64) AppleWebKit/537.36 (KHTML, like Gecko) Chrome/102.0.5005.63 Safari/537.36" etag="-HDM5AZwQRDx4WKwn6ii" version="19.0.3" type="github">
  <diagram id="APq7yh2o23A28OA9TLXc" name="Page-1">
    <mxGraphModel dx="942" dy="614" grid="1" gridSize="10" guides="1" tooltips="1" connect="1" arrows="1" fold="1" page="1" pageScale="1" pageWidth="827" pageHeight="1169" math="0" shadow="0">
      <root>
        <mxCell id="0" />
        <mxCell id="1" parent="0" />
        <mxCell id="Csvonph7ouFIjeJ6Ovv--25" style="edgeStyle=orthogonalEdgeStyle;rounded=0;orthogonalLoop=1;jettySize=auto;html=1;exitX=1;exitY=0.5;exitDx=0;exitDy=0;entryX=0;entryY=0.5;entryDx=0;entryDy=0;fontSize=12;" edge="1" parent="1" source="Csvonph7ouFIjeJ6Ovv--1" target="Csvonph7ouFIjeJ6Ovv--18">
          <mxGeometry relative="1" as="geometry" />
        </mxCell>
        <mxCell id="Csvonph7ouFIjeJ6Ovv--27" style="edgeStyle=orthogonalEdgeStyle;rounded=0;orthogonalLoop=1;jettySize=auto;html=1;exitX=0.5;exitY=0;exitDx=0;exitDy=0;entryX=0.5;entryY=1;entryDx=0;entryDy=0;fontSize=12;" edge="1" parent="1" source="Csvonph7ouFIjeJ6Ovv--1" target="Csvonph7ouFIjeJ6Ovv--26">
          <mxGeometry relative="1" as="geometry" />
        </mxCell>
        <mxCell id="Csvonph7ouFIjeJ6Ovv--29" style="edgeStyle=orthogonalEdgeStyle;rounded=0;orthogonalLoop=1;jettySize=auto;html=1;exitX=0;exitY=0.5;exitDx=0;exitDy=0;entryX=1;entryY=0.5;entryDx=0;entryDy=0;fontSize=12;" edge="1" parent="1" source="Csvonph7ouFIjeJ6Ovv--1" target="Csvonph7ouFIjeJ6Ovv--28">
          <mxGeometry relative="1" as="geometry" />
        </mxCell>
        <mxCell id="Csvonph7ouFIjeJ6Ovv--1" value="VIQ" style="rounded=1;whiteSpace=wrap;html=1;fillColor=#0050ef;fontColor=#ffffff;strokeColor=#001DBC;" vertex="1" parent="1">
          <mxGeometry x="354" y="180" width="120" height="60" as="geometry" />
        </mxCell>
        <mxCell id="Csvonph7ouFIjeJ6Ovv--16" value="" style="edgeStyle=orthogonalEdgeStyle;rounded=0;orthogonalLoop=1;jettySize=auto;html=1;fontSize=12;exitX=0.5;exitY=1;exitDx=0;exitDy=0;" edge="1" parent="1" source="Csvonph7ouFIjeJ6Ovv--1" target="Csvonph7ouFIjeJ6Ovv--15">
          <mxGeometry relative="1" as="geometry">
            <mxPoint x="414" y="250" as="sourcePoint" />
          </mxGeometry>
        </mxCell>
        <mxCell id="Csvonph7ouFIjeJ6Ovv--10" value="&amp;nbsp;2 Válvulas de Refluxo (RFP)" style="rounded=1;whiteSpace=wrap;html=1;" vertex="1" parent="1">
          <mxGeometry x="200" y="360" width="90" height="70" as="geometry" />
        </mxCell>
        <mxCell id="Csvonph7ouFIjeJ6Ovv--11" value="1 Válvula de Refluxo (RFP)" style="rounded=1;whiteSpace=wrap;html=1;" vertex="1" parent="1">
          <mxGeometry x="530" y="360" width="90" height="70" as="geometry" />
        </mxCell>
        <mxCell id="Csvonph7ouFIjeJ6Ovv--14" value="A BPR possui princípio de prevenção de refluxo" style="text;html=1;strokeColor=none;fillColor=none;align=center;verticalAlign=middle;whiteSpace=wrap;rounded=0;fontSize=12;" vertex="1" parent="1">
          <mxGeometry x="414" y="260" width="130" height="50" as="geometry" />
        </mxCell>
        <mxCell id="Csvonph7ouFIjeJ6Ovv--20" style="edgeStyle=orthogonalEdgeStyle;rounded=0;orthogonalLoop=1;jettySize=auto;html=1;entryX=0.5;entryY=0;entryDx=0;entryDy=0;fontSize=12;" edge="1" parent="1" source="Csvonph7ouFIjeJ6Ovv--15" target="Csvonph7ouFIjeJ6Ovv--10">
          <mxGeometry relative="1" as="geometry" />
        </mxCell>
        <mxCell id="Csvonph7ouFIjeJ6Ovv--22" style="edgeStyle=orthogonalEdgeStyle;rounded=0;orthogonalLoop=1;jettySize=auto;html=1;exitX=1;exitY=0.5;exitDx=0;exitDy=0;entryX=0.5;entryY=0;entryDx=0;entryDy=0;fontSize=12;" edge="1" parent="1" source="Csvonph7ouFIjeJ6Ovv--15" target="Csvonph7ouFIjeJ6Ovv--11">
          <mxGeometry relative="1" as="geometry" />
        </mxCell>
        <mxCell id="Csvonph7ouFIjeJ6Ovv--15" value="" style="rhombus;whiteSpace=wrap;html=1;" vertex="1" parent="1">
          <mxGeometry x="391" y="310" width="46" height="50" as="geometry" />
        </mxCell>
        <mxCell id="Csvonph7ouFIjeJ6Ovv--18" value="1 Válvula de retenção calibrada (BPR)" style="rounded=1;whiteSpace=wrap;html=1;" vertex="1" parent="1">
          <mxGeometry x="570" y="172.5" width="100" height="75" as="geometry" />
        </mxCell>
        <mxCell id="Csvonph7ouFIjeJ6Ovv--19" value="SIM" style="text;html=1;strokeColor=none;fillColor=none;align=center;verticalAlign=middle;whiteSpace=wrap;rounded=0;fontSize=12;" vertex="1" parent="1">
          <mxGeometry x="449" y="330" width="60" height="30" as="geometry" />
        </mxCell>
        <mxCell id="Csvonph7ouFIjeJ6Ovv--23" value="NÃO" style="text;html=1;strokeColor=none;fillColor=none;align=center;verticalAlign=middle;whiteSpace=wrap;rounded=0;fontSize=12;" vertex="1" parent="1">
          <mxGeometry x="290" y="330" width="60" height="30" as="geometry" />
        </mxCell>
        <mxCell id="Csvonph7ouFIjeJ6Ovv--26" value="1 SUI" style="rounded=1;whiteSpace=wrap;html=1;" vertex="1" parent="1">
          <mxGeometry x="369" y="30" width="90" height="70" as="geometry" />
        </mxCell>
        <mxCell id="Csvonph7ouFIjeJ6Ovv--28" value="1 SCIS" style="rounded=1;whiteSpace=wrap;html=1;" vertex="1" parent="1">
          <mxGeometry x="160" y="175" width="90" height="70" as="geometry" />
        </mxCell>
      </root>
    </mxGraphModel>
  </diagram>
</mxfile>
